<svg aria-hidden="true" style="position: absolute; width: 0; height: 0; overflow: hidden;" version="1.1" xmlns="http://www.w3.org/2000/svg" xmlns:xlink="http://www.w3.org/1999/xlink">
<defs>
<symbol id="icon-menu" viewBox="0 0 48 32">
<path d="M0 5.333v-5.333h48v5.333h-48zM0 18.667h48v-5.333h-48v5.333zM0 32h48v-5.333h-48v5.333z"></path>
</symbol>
<symbol id="icon-book" viewBox="0 0 23 32">
<path d="M19.429 0h-16c-1.89 0-3.429 1.346-3.429 3.001v26c0 1.65 1.538 2.999 3.429 2.999h16c1.89 0 3.429-1.346 3.429-2.999v-26c0-1.655-1.538-3.001-3.429-3.001zM3.429 2h16c0.631 0 1.143 0.448 1.143 1.001v20.999h-18.286v-20.999c0-0.553 0.512-1.001 1.143-1.001zM19.429 30h-16c-0.631 0-1.143-0.448-1.143-0.999v-3.001h18.286v3.001c0 0.549-0.512 0.999-1.143 0.999z"></path>
</symbol>
<symbol id="icon-letter" viewBox="0 0 45 32">
<path d="M40.602 0h-36.4c-2.317 0-4.202 1.792-4.202 4v24c0 2.208 1.885 4 4.202 4h36.4c2.31 0 4.198-1.792 4.198-4v-24c0-2.208-1.885-4-4.198-4zM40.602 2.666q0.285 0 0.534 0.106l-18.736 15.466-18.736-15.466c0.158-0.063 0.341-0.101 0.532-0.106l0.002-0zM40.602 29.334h-36.4c-0.008 0-0.017 0-0.026 0-0.745 0-1.352-0.593-1.375-1.333l-0-0.002v-22.413l18.682 15.421c0.247 0.206 0.568 0.331 0.918 0.331s0.671-0.125 0.921-0.333l-0.002 0.002 18.682-15.421v22.413c0 0.736-0.627 1.334-1.398 1.334z"></path>
</symbol>
<symbol id="icon-black-letter" viewBox="0 0 40 32">
<path d="M36 0h-32c-2.2 0-3.981 1.8-3.981 4l-0.019 24c0 2.2 1.8 4 4 4h32c2.2 0 4-1.8 4-4v-24c0-2.2-1.8-4-4-4zM35.2 8.501l-14.139 8.837c-0.302 0.188-0.668 0.299-1.060 0.299s-0.758-0.111-1.069-0.304l0.009 0.005-14.141-8.837c-0.503-0.301-0.835-0.843-0.835-1.463 0-0.938 0.761-1.699 1.699-1.699 0.349 0 0.673 0.105 0.943 0.285l-0.006-0.004 13.4 8.379 13.4-8.379c0.264-0.176 0.588-0.282 0.937-0.282 0.938 0 1.699 0.761 1.699 1.699 0 0.62-0.332 1.162-0.828 1.459l-0.008 0.004z"></path>
</symbol>
<symbol id="icon-call" viewBox="0 0 32 32">
<path d="M28.864 21.822l-4.524-0.517c-0.124-0.015-0.267-0.024-0.413-0.024-0.98 0-1.867 0.398-2.509 1.041l-3.276 3.276c-5.080-2.623-9.118-6.66-11.671-11.59l-0.070-0.149 3.298-3.296c0.642-0.641 1.038-1.528 1.038-2.506 0-0.146-0.009-0.289-0.026-0.43l0.002 0.017-0.517-4.49c-0.215-1.784-1.72-3.153-3.545-3.153h-3.082c-2.014 0-3.687 1.674-3.562 3.687 0.943 15.212 13.11 27.362 28.305 28.308 2.014 0.123 3.687-1.551 3.687-3.564v-3.082c0-0.006 0-0.013 0-0.020 0-1.811-1.363-3.303-3.12-3.506l-0.016-0.002z"></path>
</symbol>
<symbol id="icon-person" viewBox="0 0 32 32">
<path d="M16 16c4.418 0 8-3.582 8-8s-3.582-8-8-8v0c-4.418 0-8 3.582-8 8s3.582 8 8 8v0zM16 20c-5.339 0-16 2.68-16 8v2c0 1.099 0.901 2 2 2h28c1.099 0 2-0.901 2-2v-2c0-5.32-10.661-8-16-8z"></path>
</symbol>
<symbol id="icon-message" viewBox="0 0 32 32">
<path d="M32 0l-32 18 10.227 3.787 15.773-14.787-11.997 16.187 0.009 0.003-0.012-0.003v8.813l5.735-6.691 7.267 2.691z"></path>
</symbol>
<symbol id="icon-tag-line" viewBox="0 0 62 32">
<path d="M31.123 14.854c-0.251-0.36-0.401-0.806-0.401-1.288 0-0.050 0.002-0.1 0.005-0.15l-0 0.007v-2.074q0-0.954 0.394-1.45t1.356-0.494q0.903 0 1.282 0.422c0.275 0.359 0.41 0.798 0.378 1.241v0.487h-1.076v-0.494c0-0.018 0.001-0.040 0.001-0.062 0-0.149-0.012-0.294-0.034-0.437l0.002 0.016c-0.018-0.115-0.073-0.214-0.153-0.287l-0-0c-0.095-0.071-0.215-0.113-0.345-0.113-0.016 0-0.031 0.001-0.047 0.002l0.002-0c-0.013-0.001-0.027-0.001-0.042-0.001-0.138 0-0.266 0.045-0.37 0.121l0.002-0.001c-0.091 0.081-0.155 0.19-0.178 0.313l-0.001 0.003q-0.046 0.255-0.042 0.513v2.518c-0.017 0.243 0.031 0.486 0.138 0.707 0.055 0.075 0.128 0.134 0.212 0.171l0.003 0.001c0.063 0.027 0.137 0.043 0.215 0.043 0.022 0 0.044-0.001 0.065-0.004l-0.003 0c0.012 0.001 0.027 0.002 0.042 0.002 0.128 0 0.247-0.043 0.341-0.117l-0.001 0.001c0.084-0.079 0.142-0.184 0.16-0.303l0-0.003q0.038-0.251 0.034-0.504v-0.511h1.076v0.466c0.003 0.039 0.004 0.085 0.004 0.132 0 0.44-0.141 0.848-0.381 1.179l0.004-0.006c-0.247 0.308-0.669 0.462-1.288 0.462s-1.088-0.164-1.354-0.506zM35.608 14.876q-0.408-0.484-0.408-1.416v-2.183q0-0.925 0.408-1.399 0.407-0.475 1.364-0.473 0.95 0 1.358 0.473c0.271 0.317 0.41 0.783 0.41 1.399v2.183q0 0.925-0.415 1.414-0.414 0.487-1.353 0.487c-0.626 0-1.090-0.164-1.364-0.485zM37.473 14.352c0.097-0.202 0.142-0.424 0.129-0.646v-2.672c0.001-0.022 0.002-0.047 0.002-0.072 0-0.204-0.048-0.397-0.133-0.568l0.003 0.007c-0.056-0.076-0.13-0.136-0.216-0.173l-0.003-0.001c-0.063-0.027-0.136-0.042-0.212-0.042-0.025 0-0.050 0.002-0.074 0.005l0.003-0c-0.022-0.003-0.047-0.005-0.072-0.005-0.077 0-0.15 0.016-0.216 0.044l0.004-0.001c-0.090 0.038-0.165 0.098-0.22 0.172l-0.001 0.001c-0.097 0.197-0.142 0.415-0.129 0.633v2.685c-0.014 0.223 0.031 0.444 0.129 0.646 0.063 0.067 0.139 0.121 0.223 0.158l0.004 0.002c0.082 0.036 0.177 0.057 0.277 0.057s0.195-0.021 0.281-0.059l-0.004 0.002c0.089-0.039 0.164-0.093 0.226-0.16l0-0zM40.035 9.468h1.16l0.872 4.028 0.892-4.028h1.128l0.113 5.813h-0.833l-0.089-4.040-0.861 4.040h-0.669l-0.892-4.054-0.083 4.054h-0.843zM45.5 9.468h1.806q1.561 0 1.561 1.651 0 1.581-1.643 1.579h-0.616v2.583h-1.114zM47.043 11.952c0.11 0.014 0.222 0.004 0.328-0.028s0.203-0.085 0.285-0.155c0.128-0.197 0.184-0.427 0.161-0.657 0.001-0.018 0.001-0.040 0.001-0.062 0-0.165-0.020-0.326-0.057-0.48l0.003 0.014c-0.017-0.062-0.045-0.115-0.083-0.161l0.001 0.001c-0.039-0.047-0.085-0.086-0.138-0.116l-0.002-0.001c-0.127-0.060-0.277-0.094-0.434-0.094-0.022 0-0.045 0.001-0.067 0.002l0.003-0h-0.433v1.736zM50.474 9.468h1.197l1.229 5.813h-1.039l-0.243-1.341h-1.068l-0.25 1.341h-1.054zM51.497 13.267l-0.417-2.44-0.417 2.44zM53.891 9.468h0.781l1.494 3.316v-3.316h0.925v5.812h-0.742l-1.503-3.462v3.462h-0.957zM59.258 13.064l-1.242-3.588h1.046l0.758 2.305 0.711-2.305h1.023l-1.226 3.588v2.216h-1.070zM32.845 17.822v0.304h-0.91v2.362h-0.381v-2.362h-0.914v-0.304zM35.697 20.488h-0.294c-0.002 0-0.005 0-0.007 0-0.028 0-0.055-0.009-0.076-0.026l0 0c-0.022-0.015-0.038-0.036-0.048-0.060l-0-0.001-0.263-0.633h-1.262l-0.263 0.633c-0.009 0.028-0.023 0.052-0.041 0.072l0-0c-0.022 0.016-0.050 0.025-0.080 0.025-0.001 0-0.002 0-0.003-0h-0.294l1.115-2.666h0.387zM33.85 19.498h1.053l-0.445-1.085c-0.028-0.067-0.057-0.15-0.080-0.236l-0.003-0.015-0.042 0.141-0.040 0.111zM37.619 20.226q0.104 0.005 0.209 0 0.090-0.009 0.179-0.032c0.064-0.015 0.118-0.032 0.17-0.052l-0.010 0.003q0.072-0.029 0.15-0.065v-0.6h-0.446c-0.002 0-0.003 0-0.005 0-0.021 0-0.041-0.008-0.055-0.021l0 0c-0.014-0.012-0.022-0.029-0.022-0.048 0-0 0-0.001 0-0.001v0-0.205h0.865v1.022c-0.135 0.091-0.291 0.165-0.458 0.214l-0.012 0.003c-0.077 0.022-0.172 0.042-0.268 0.055l-0.011 0.001c-0.097 0.010-0.21 0.016-0.325 0.017h-0.001c-0.002 0-0.004 0-0.007 0-0.199 0-0.39-0.037-0.566-0.103l0.011 0.004c-0.173-0.066-0.321-0.16-0.446-0.279l0.001 0.001c-0.12-0.117-0.218-0.258-0.285-0.414l-0.003-0.008c-0.065-0.159-0.102-0.344-0.102-0.537 0-0.006 0-0.011 0-0.017v0.001c-0-0.004-0-0.009-0-0.013 0-0.196 0.037-0.383 0.104-0.555l-0.004 0.010c0.064-0.158 0.162-0.301 0.287-0.422 0.127-0.12 0.279-0.214 0.446-0.277 0.191-0.068 0.394-0.102 0.598-0.099q0.156 0 0.31 0.023 0.136 0.021 0.264 0.067 0.118 0.042 0.223 0.106 0.103 0.063 0.195 0.139l-0.108 0.165c-0.009 0.015-0.021 0.027-0.036 0.036l-0 0c-0.015 0.009-0.032 0.014-0.051 0.014h-0c-0.026-0.001-0.049-0.009-0.069-0.021l0.001 0c-0.044-0.023-0.080-0.044-0.115-0.066l0.006 0.003c-0.042-0.026-0.092-0.050-0.143-0.070l-0.007-0.002c-0.057-0.022-0.125-0.043-0.196-0.058l-0.009-0.002c-0.081-0.015-0.175-0.023-0.27-0.023-0.005 0-0.009 0-0.013 0h0.001c-0.005-0-0.012-0-0.018-0-0.148 0-0.289 0.027-0.42 0.077l0.008-0.003c-0.128 0.048-0.237 0.12-0.328 0.211l-0 0c-0.093 0.096-0.163 0.209-0.207 0.332-0.047 0.132-0.075 0.285-0.075 0.444s0.027 0.312 0.078 0.454l-0.003-0.009c0.049 0.125 0.125 0.24 0.223 0.335 0.092 0.092 0.202 0.163 0.326 0.211 0.142 0.046 0.292 0.064 0.442 0.053zM41.172 20.184h1.217v0.304h-1.59v-2.666h0.381zM43.656 20.487h-0.381v-2.664h0.381zM45.074 17.834q0.033 0.019 0.058 0.049l1.63 2.010c-0.001-0.014-0.002-0.031-0.002-0.048s0.001-0.033 0.002-0.050l-0 0.002v-1.986h0.333v2.676h-0.192c-0.004 0-0.009 0.001-0.013 0.001-0.025 0-0.049-0.006-0.071-0.016l0.001 0c-0.023-0.013-0.043-0.030-0.060-0.050l-0-0-1.628-2.007v2.072h-0.319v-2.665h0.198q0.033 0 0.063 0.013zM49.901 17.822v0.294h-1.351v0.88h1.095v0.282h-1.095v0.91h1.351v0.294h-1.743v-2.659zM9.951 1.359l16.929 4.55v15.946l-16.929-4.547zM8.865 0v18.082l19.098 5.135v-18.080z"></path>
<path d="M19.101 31.61l-19.101-5.139v-18.080l19.101 5.137z"></path>
<path d="M9.181 1.155l16.708 4.493-7.107 6.728-16.709-4.494zM8.865 0l-8.865 8.392 19.101 5.137 8.861-8.392zM20.175 30.593l7.787-7.374-7.787-2.096z"></path>
</symbol>
<symbol id="icon-brand" viewBox="0 0 40 32">
<path d="M3.056 26.742c0.157 0.194 0.24 0.438 0.236 0.688 0.001 0.016 0.001 0.035 0.001 0.055 0 0.324-0.141 0.614-0.365 0.814l-0.001 0.001c-0.304 0.231-0.681 0.343-1.061 0.317h-1.865v-4.361h1.827c0.030-0.002 0.065-0.003 0.1-0.003 0.342 0 0.659 0.11 0.917 0.296l-0.005-0.003c0.218 0.184 0.356 0.457 0.356 0.762 0 0.019-0.001 0.038-0.002 0.056l0-0.003c0.011 0.24-0.065 0.477-0.212 0.667-0.142 0.173-0.338 0.293-0.556 0.34 0.247 0.046 0.471 0.177 0.63 0.373zM0.868 26.084h0.78c0.178 0.014 0.354-0.038 0.497-0.145 0.104-0.095 0.169-0.231 0.169-0.383 0-0.015-0.001-0.030-0.002-0.045l0 0.002c0.001-0.011 0.001-0.023 0.001-0.036 0-0.153-0.064-0.291-0.166-0.389l-0-0c-0.124-0.093-0.28-0.15-0.449-0.15-0.022 0-0.044 0.001-0.065 0.003l0.003-0h-0.767zM2.222 27.756c0.114-0.1 0.185-0.247 0.185-0.409 0-0.012-0-0.023-0.001-0.035l0 0.002c0.001-0.010 0.001-0.021 0.001-0.032 0-0.166-0.073-0.314-0.189-0.416l-0.001-0.001c-0.132-0.099-0.299-0.159-0.48-0.159-0.018 0-0.036 0.001-0.054 0.002l0.002-0h-0.818v1.199h0.829c0.187 0.011 0.372-0.042 0.524-0.151zM6.789 28.617l-1.016-1.704h-0.382v1.704h-0.874v-4.361h1.654c0.033-0.002 0.072-0.004 0.111-0.004 0.397 0 0.761 0.142 1.044 0.377l-0.003-0.002c0.245 0.251 0.396 0.595 0.396 0.974 0 0.313-0.103 0.601-0.276 0.834l0.003-0.004c-0.204 0.235-0.483 0.392-0.789 0.443l1.083 1.743zM5.392 26.318h0.715q0.746 0 0.745-0.66c0.001-0.011 0.001-0.023 0.001-0.036 0-0.177-0.070-0.337-0.184-0.454l0 0c-0.134-0.112-0.307-0.18-0.497-0.18-0.023 0-0.046 0.001-0.069 0.003l0.003-0h-0.724zM11.568 27.739h-1.742l-0.308 0.878h-0.916l1.6-4.313h0.991l1.593 4.312h-0.916zM11.335 27.079l-0.637-1.84-0.637 1.84zM17.55 28.617h-0.869l-1.945-2.965v2.965h-0.866v-4.361h0.866l1.945 2.982v-2.982h0.868zM22.502 27.573c-0.182 0.33-0.45 0.593-0.775 0.764l-0.010 0.005c-0.378 0.191-0.797 0.286-1.22 0.274h-1.546v-4.361h1.546c0.021-0.001 0.045-0.001 0.070-0.001 0.419 0 0.815 0.1 1.165 0.277l-0.015-0.007c0.332 0.168 0.606 0.433 0.785 0.761 0.171 0.333 0.271 0.727 0.271 1.144s-0.1 0.811-0.278 1.158l0.007-0.014zM21.509 27.469c0.239-0.278 0.385-0.642 0.385-1.041s-0.146-0.763-0.386-1.043l0.002 0.002c-0.263-0.232-0.61-0.374-0.99-0.374-0.034 0-0.067 0.001-0.1 0.003l0.005-0h-0.603v2.823h0.603c0.029 0.002 0.062 0.003 0.096 0.003 0.38 0 0.727-0.142 0.991-0.375l-0.002 0.001zM12.112 0s11.201 4.246 10.962 10.39v10.392s-11.193-4.248-10.959-10.392zM33.053 18.349c2.005-1.402 4.428-2.345 7.049-2.628l0.068-0.006v-3.253c-2.995 1.181-5.437 3.227-7.081 5.827l-0.035 0.060z"></path>
<path d="M31.782 19.329c1.749-3.487 4.693-6.158 8.283-7.513l0.105-0.035v-9.373s-15.952 6.048-15.615 14.798v14.795s0.711-0.27 1.829-0.778c0-0.473 0-0.95 0.051-1.43 0.349-4.205 2.342-7.887 5.325-10.446l0.021-0.017z"></path>
<path d="M30.266 24.825c0.084-1.026 0.27-2.041 0.558-3.030-2.038 2.401-3.303 5.514-3.378 8.921l-0 0.016c1.299-0.625 2.304-1.165 3.286-1.741l-0.218 0.118c-0.191-0.909-0.3-1.953-0.3-3.022 0-0.444 0.019-0.884 0.056-1.319l-0.004 0.057zM30.9 24.878c-0.031 0.359-0.049 0.777-0.049 1.199 0 0.948 0.090 1.875 0.261 2.773l-0.015-0.092c4.357-2.619 9.255-6.664 9.066-11.553v-0.426c-3.246 0.375-6.107 1.788-8.297 3.894l0.005-0.004c-0.501 1.234-0.846 2.664-0.968 4.158l-0.003 0.052z"></path>
</symbol>
<symbol id="icon-foster-peters" viewBox="0 0 60 32">
<path d="M9.229 9.548h-0.002c-1.684 0-3.049 1.331-3.049 2.971v0.002c0 1.64 1.365 2.971 3.048 2.971h0.002c1.684 0 3.049-1.331 3.049-2.971v-0.002c0-1.64-1.365-2.97-3.049-2.97zM31.73 8.599c-0.005-2.279-0.936-4.463-2.59-6.075-1.651-1.611-3.893-2.519-6.231-2.524-2.339 0.004-4.581 0.912-6.236 2.523s-2.585 3.797-2.59 6.076v12.566s17.645-1.915 17.647-12.564zM0 25.289c0.008 1.659 0.697 3.155 1.801 4.226l0.002 0.001c1.12 1.087 2.65 1.757 4.336 1.758h0c1.686-0.001 3.215-0.671 4.337-1.759l-0.002 0.002c1.106-1.071 1.795-2.567 1.804-4.224v-8.746s-12.278 1.335-12.278 8.743zM6.14 26.856c-0.001 0-0.002 0-0.002 0-0.331 0-0.639-0.098-0.897-0.267l0.006 0.004c-0.262-0.17-0.466-0.41-0.589-0.693l-0.004-0.010c-0.077-0.177-0.122-0.382-0.122-0.599 0-0.108 0.011-0.214 0.033-0.316l-0.002 0.010c0.062-0.304 0.215-0.583 0.439-0.802 0.22-0.213 0.501-0.364 0.813-0.427l0.010-0.002c0.312-0.061 0.635-0.030 0.929 0.089s0.545 0.319 0.722 0.577c0.17 0.244 0.271 0.546 0.271 0.872 0 0.216-0.045 0.422-0.125 0.609l0.004-0.010c-0.080 0.191-0.199 0.365-0.348 0.511s-0.327 0.262-0.522 0.341c-0.182 0.076-0.393 0.12-0.615 0.12-0.001 0-0.002 0-0.002 0h0zM18.672 25.884h-1.256v1.297h-0.655v-3.173h2.067v0.53h-1.412v0.819h1.255zM21.815 25.666q0 0.469-0.166 0.822t-0.475 0.545c-0.194 0.121-0.43 0.192-0.683 0.192-0.008 0-0.017-0-0.025-0l0.001 0q-0.394 0-0.704-0.19c-0.208-0.131-0.372-0.315-0.476-0.533l-0.003-0.008c-0.109-0.23-0.173-0.499-0.173-0.783 0-0.010 0-0.020 0-0.029l-0 0.001v-0.158q0-0.469 0.168-0.825 0.17-0.357 0.477-0.547 0.31-0.192 0.707-0.192 0.396 0 0.704 0.192 0.31 0.19 0.477 0.547 0.171 0.356 0.17 0.822zM21.153 25.522q0-0.499-0.179-0.759c-0.105-0.157-0.283-0.26-0.484-0.26-0.009 0-0.019 0-0.028 0.001l0.001-0c-0.008-0-0.017-0.001-0.026-0.001-0.2 0-0.377 0.102-0.481 0.256l-0.001 0.002q-0.179 0.255-0.181 0.749v0.155q0 0.487 0.179 0.755t0.514 0.268c0.007 0 0.015 0 0.024 0 0.2 0 0.376-0.101 0.481-0.255l0.001-0.002q0.176-0.26 0.179-0.755zM23.936 26.348c0-0.005 0-0.011 0-0.017 0-0.108-0.051-0.204-0.13-0.265l-0.001-0.001q-0.13-0.1-0.471-0.21c-0.209-0.065-0.388-0.139-0.558-0.227l0.019 0.009q-0.54-0.292-0.54-0.787 0-0.258 0.144-0.458 0.146-0.202 0.417-0.316 0.272-0.113 0.61-0.113 0.34 0 0.607 0.124 0.266 0.123 0.412 0.347 0.149 0.225 0.149 0.511h-0.655q0-0.219-0.137-0.338-0.137-0.123-0.386-0.123-0.239 0-0.372 0.103c-0.082 0.059-0.134 0.153-0.134 0.26 0 0.002 0 0.004 0 0.006v-0q0 0.154 0.156 0.259t0.46 0.196q0.558 0.167 0.813 0.417t0.255 0.618q0 0.413-0.312 0.647t-0.839 0.234q-0.366 0-0.667-0.133c-0.188-0.080-0.344-0.207-0.458-0.365l-0.002-0.003c-0.099-0.147-0.157-0.328-0.157-0.522 0-0.006 0-0.013 0-0.019v0.001h0.656q0 0.525 0.628 0.525 0.234 0 0.364-0.094c0.080-0.057 0.131-0.15 0.131-0.255 0-0.004-0-0.008-0-0.012l0 0.001zM27.428 24.537h-0.973v2.644h-0.654v-2.644h-0.96v-0.53h2.586zM29.712 25.805h-1.255v0.85h1.474v0.525h-2.128v-3.173h2.124v0.53h-1.469v0.756h1.255zM31.489 26.019h-0.521v1.162h-0.655v-3.173h1.18q0.562 0 0.868 0.251t0.305 0.708q0 0.324-0.141 0.543c-0.106 0.152-0.25 0.27-0.419 0.341l-0.006 0.002 0.687 1.297v0.030h-0.702zM30.969 25.489h0.528q0.246 0 0.381-0.124c0.084-0.081 0.136-0.195 0.136-0.321 0-0.009-0-0.018-0.001-0.027l0 0.001q0-0.225-0.129-0.353-0.127-0.129-0.39-0.129h-0.525zM34.932 26.062v1.119h-0.654v-3.173h1.238q0.357 0 0.628 0.131 0.272 0.131 0.418 0.372 0.147 0.24 0.147 0.548 0 0.467-0.321 0.737-0.318 0.268-0.883 0.268zM34.932 25.533h0.584q0.26 0 0.394-0.123 0.138-0.121 0.138-0.348c0-0.007 0.001-0.015 0.001-0.024 0-0.137-0.053-0.261-0.139-0.354l0 0q-0.137-0.144-0.38-0.149h-0.599zM39.070 25.805h-1.255v0.85h1.474v0.525h-2.128v-3.173h2.124v0.53h-1.47v0.756h1.255zM42.105 24.537h-0.974v2.644h-0.654v-2.644h-0.959v-0.53h2.586zM44.39 25.805h-1.257v0.85h1.474v0.525h-2.127v-3.173h2.123v0.53h-1.47v0.756h1.256zM46.167 26.019h-0.521v1.162h-0.655v-3.173h1.18q0.563 0 0.868 0.251t0.305 0.708q0 0.324-0.141 0.543c-0.106 0.152-0.25 0.27-0.419 0.341l-0.006 0.002 0.687 1.297v0.030h-0.703zM45.646 25.489h0.527q0.247 0 0.382-0.124c0.084-0.081 0.136-0.195 0.136-0.321 0-0.009-0-0.018-0.001-0.027l0 0.001q0-0.225-0.129-0.353-0.127-0.129-0.391-0.129h-0.525zM49.49 26.348c0-0.005 0-0.011 0-0.017 0-0.108-0.051-0.204-0.131-0.265l-0.001-0.001q-0.131-0.1-0.471-0.21c-0.209-0.065-0.388-0.139-0.558-0.227l0.019 0.009q-0.54-0.292-0.54-0.787 0-0.258 0.144-0.458 0.145-0.202 0.417-0.316t0.61-0.113q0.34 0 0.606 0.124 0.266 0.123 0.412 0.347 0.149 0.225 0.149 0.511h-0.655q0-0.219-0.137-0.338-0.137-0.123-0.386-0.123-0.24 0-0.372 0.103c-0.082 0.059-0.134 0.153-0.134 0.26 0 0.002 0 0.004 0 0.006v-0q0 0.154 0.156 0.259t0.46 0.196q0.558 0.167 0.813 0.417t0.255 0.618q0 0.413-0.312 0.647t-0.839 0.234q-0.366 0-0.667-0.133c-0.188-0.080-0.344-0.207-0.458-0.365l-0.002-0.003c-0.099-0.147-0.157-0.328-0.157-0.522 0-0.006 0-0.013 0-0.019v0.001h0.656q0 0.525 0.627 0.525 0.234 0 0.365-0.094c0.079-0.057 0.13-0.15 0.13-0.254 0-0.004-0-0.009-0-0.013l0 0.001z"></path>
</symbol>
<symbol id="icon-company" viewBox="0 0 31 32">
<path d="M4.723 31.103c0.023 0.001 0.044 0.010 0.060 0.025l-0-0 0.153 0.161c-0.119 0.13-0.266 0.234-0.431 0.304-0.194 0.077-0.401 0.115-0.61 0.109-0.010 0-0.021 0-0.032 0-0.195 0-0.382-0.038-0.552-0.106l0.010 0.004c-0.332-0.134-0.588-0.397-0.709-0.725l-0.003-0.009c-0.061-0.165-0.097-0.356-0.097-0.555 0-0.006 0-0.011 0-0.017v0.001c-0-0.008-0-0.016-0-0.025 0-0.197 0.038-0.385 0.108-0.558l-0.004 0.010c0.067-0.165 0.168-0.316 0.298-0.444 0.13-0.127 0.287-0.225 0.459-0.29 0.188-0.070 0.389-0.104 0.592-0.102 0.188-0.004 0.374 0.027 0.549 0.093q0.228 0.095 0.412 0.257l-0.129 0.171c-0.009 0.012-0.020 0.022-0.032 0.031l-0 0c-0.012 0.009-0.027 0.014-0.043 0.014-0.003 0-0.006-0-0.009-0.001l0 0c-0.021-0.002-0.039-0.008-0.056-0.019l0 0-0.069-0.045-0.096-0.059c-0.087-0.046-0.189-0.082-0.296-0.101l-0.006-0.001c-0.062-0.011-0.134-0.018-0.207-0.018-0.007 0-0.015 0-0.022 0l0.001-0c-0.006-0-0.013-0-0.020-0-0.146 0-0.285 0.028-0.413 0.079l0.008-0.003c-0.13 0.051-0.241 0.124-0.333 0.216l0-0c-0.095 0.099-0.169 0.216-0.216 0.342-0.054 0.145-0.080 0.298-0.079 0.452-0.002 0.156 0.025 0.313 0.079 0.46 0.046 0.126 0.119 0.242 0.212 0.341 0.088 0.093 0.196 0.165 0.318 0.212 0.125 0.049 0.259 0.074 0.394 0.073q0.118 0.002 0.234-0.015c0.127-0.015 0.247-0.057 0.354-0.122q0.080-0.051 0.151-0.113c0.019-0.018 0.045-0.029 0.073-0.030h0zM9.144 30.296c0.002 0.194-0.033 0.387-0.103 0.568-0.067 0.172-0.165 0.319-0.288 0.44l-0 0c-0.126 0.122-0.277 0.22-0.443 0.286l-0.009 0.003c-0.173 0.065-0.373 0.102-0.582 0.102s-0.409-0.037-0.594-0.106l0.012 0.004c-0.175-0.069-0.324-0.168-0.45-0.29l0 0c-0.124-0.123-0.223-0.271-0.288-0.436l-0.003-0.009c-0.065-0.169-0.103-0.364-0.103-0.568s0.038-0.399 0.107-0.579l-0.004 0.011c0.065-0.166 0.164-0.318 0.29-0.447 0.126-0.118 0.276-0.213 0.441-0.276l0.009-0.003c0.173-0.066 0.373-0.104 0.582-0.104s0.409 0.038 0.594 0.108l-0.012-0.004c0.17 0.066 0.324 0.164 0.452 0.29 0.127 0.127 0.224 0.275 0.289 0.439 0.071 0.182 0.106 0.376 0.104 0.571zM8.743 30.297c0-0.006 0-0.012 0-0.019 0-0.156-0.027-0.306-0.076-0.446l0.003 0.009c-0.087-0.256-0.278-0.457-0.522-0.554l-0.006-0.002c-0.126-0.047-0.271-0.075-0.423-0.075s-0.297 0.027-0.432 0.078l0.009-0.003c-0.251 0.098-0.444 0.299-0.528 0.55l-0.002 0.006c-0.097 0.298-0.097 0.615 0 0.912q0.066 0.191 0.207 0.341c0.089 0.093 0.2 0.166 0.323 0.214 0.273 0.097 0.573 0.097 0.846 0 0.124-0.048 0.234-0.121 0.324-0.214 0.092-0.1 0.162-0.216 0.205-0.341q0.078-0.223 0.073-0.456zM12.16 30.774l0.041 0.102q0.022-0.054 0.044-0.102c0.016-0.039 0.033-0.072 0.052-0.104l-0.002 0.003 0.978-1.694q0.028-0.045 0.056-0.053c0.019-0.006 0.041-0.009 0.064-0.009 0.006 0 0.011 0 0.017 0.001l-0.001-0h0.289v2.755h-0.342v-2.111c-0.001-0.014-0.002-0.031-0.002-0.048s0.001-0.033 0.002-0.050l-0 0.002-0.984 1.718c-0.013 0.026-0.033 0.048-0.057 0.062l-0.001 0c-0.022 0.014-0.049 0.022-0.079 0.022-0.002 0-0.004-0-0.006-0h-0.055q-0.046 0-0.084-0.022c-0.025-0.015-0.045-0.036-0.058-0.062l-0-0.001-1.012-1.73v2.212h-0.331v-2.75h0.289c0.005-0 0.010-0.001 0.016-0.001 0.023 0 0.045 0.003 0.066 0.010l-0.002-0c0.024 0.011 0.042 0.029 0.053 0.052l0 0.001 0.999 1.696c0.017 0.028 0.034 0.060 0.048 0.093l0.002 0.005zM15.841 30.638v1.031h-0.383v-2.75h0.854c0.008-0 0.018-0 0.028-0 0.16 0 0.314 0.022 0.46 0.063l-0.012-0.003c0.124 0.034 0.239 0.092 0.337 0.171 0.085 0.074 0.15 0.167 0.191 0.27 0.045 0.112 0.067 0.232 0.066 0.352 0.002 0.121-0.022 0.24-0.071 0.352-0.048 0.11-0.118 0.202-0.205 0.274l-0.001 0.001c-0.096 0.080-0.209 0.142-0.332 0.18l-0.007 0.002c-0.149 0.045-0.305 0.067-0.461 0.064zM15.841 30.342h0.463q0.153 0.002 0.297-0.042c0.083-0.026 0.154-0.067 0.215-0.12l-0.001 0.001c0.056-0.049 0.1-0.11 0.129-0.178l0.001-0.003c0.029-0.068 0.046-0.147 0.046-0.23 0-0.001 0-0.002 0-0.003v0c0-0.007 0.001-0.016 0.001-0.025 0-0.072-0.014-0.14-0.041-0.202l0.001 0.003c-0.031-0.074-0.077-0.137-0.133-0.188l-0-0c-0.126-0.094-0.284-0.15-0.456-0.15-0.021 0-0.041 0.001-0.062 0.002l0.003-0h-0.463zM20.986 31.673h-0.302c-0 0-0.001 0-0.001 0-0.031 0-0.060-0.009-0.084-0.026l0.001 0c-0.022-0.016-0.039-0.038-0.049-0.063l-0-0.001-0.26-0.665h-1.307l-0.27 0.665c-0.011 0.025-0.027 0.046-0.047 0.061l-0 0c-0.022 0.017-0.051 0.028-0.081 0.028-0.002 0-0.003-0-0.005-0h-0.302l1.148-2.756h0.398zM19.091 30.65h1.080l-0.455-1.122c-0.029-0.069-0.058-0.155-0.083-0.243l-0.004-0.016-0.045 0.144c-0.015 0.050-0.030 0.089-0.045 0.127l0.004-0.010zM22.64 28.93q0.035 0.019 0.058 0.050l1.674 2.076v-2.139h0.342v2.756h-0.191c-0.003 0-0.006 0-0.010 0-0.025 0-0.049-0.006-0.069-0.017l0.001 0c-0.024-0.014-0.044-0.031-0.061-0.051l-0-0-1.674-2.075q0.003 0.047 0 0.095v2.049h-0.342v-2.756h0.203q0.036 0 0.068 0.013zM27.537 30.577v1.094h-0.383v-1.094l-1.058-1.66h0.342c0.002-0 0.005-0 0.008-0 0.028 0 0.054 0.009 0.075 0.024l-0-0c0.021 0.017 0.038 0.038 0.052 0.061l0.001 0.001 0.662 1.070q0.040 0.068 0.069 0.128t0.048 0.116l0.050-0.118q0.028-0.065 0.066-0.126l0.653-1.078c0.015-0.022 0.031-0.042 0.050-0.059l0-0c0.020-0.017 0.047-0.027 0.075-0.027 0.002 0 0.005 0 0.007 0h0.346zM11.971 24.293q0.25 0.030 0.505 0.051c2.582-1.101 4.768-2.902 6.282-5.18s2.29-4.93 2.23-7.625l-2.846-2.712c0.189 0.894 0.297 1.922 0.297 2.975 0 2.014-0.396 3.936-1.115 5.692l0.036-0.1c-1.090 2.731-2.956 5.12-5.389 6.899z"></path>
<path d="M10.954 24.167l0.077 0.015c2.6-1.773 4.583-4.247 5.692-7.104 0.627-1.564 0.99-3.377 0.99-5.275 0-1.296-0.17-2.553-0.488-3.75l0.023 0.102-4.054-3.862c1.269 2.397 2.014 5.24 2.014 8.257 0 0.701-0.040 1.392-0.118 2.072l0.008-0.083c-0.396 3.518-1.833 6.857-4.143 9.628zM24.704 14.724c-0.689 2.962-2.361 5.632-4.77 7.616-0.665 0.554-1.406 1.067-2.192 1.511l-0.074 0.039c2.039-0.578 3.804-1.556 5.285-2.851l-0.016 0.014c1.465-1.282 2.624-2.875 3.38-4.679l0.031-0.084z"></path>
<path d="M24.060 14.288l-2.341-2.23c-0.054 2.681-0.866 5.161-2.23 7.249l0.032-0.053c-1.394 2.169-3.373 3.943-5.729 5.137h0.012q0.787 0 1.571-0.089c2.251-0.883 4.15-2.237 5.65-3.95l0.014-0.017c1.454-1.661 2.512-3.704 3.005-5.958l0.016-0.089zM11.294 2.664l-2.793-2.664c-2.497 0.919-4.644 2.535-6.16 4.636s-2.333 4.589-2.34 7.139c0.010 2.818 1.005 5.552 2.829 7.77s4.372 3.793 7.242 4.476c2.562-2.973 4.061-6.647 4.281-10.488s-0.851-7.648-3.059-10.87zM30.512 13.878c-0.010-3.343-1.408-6.547-3.89-8.91s-5.843-3.696-9.352-3.706c-1.622-0.002-3.229 0.284-4.741 0.841l17.099 16.29c0.559-1.335 0.884-2.887 0.884-4.514v-0z"></path>
</symbol>
<symbol id="icon-tagline-here" viewBox="0 0 25 32">
<path d="M10.447 1.806h0.084c0.156 0 0.324 0.015 0.49 0.030 0.734 0.052 1.463 0.162 2.18 0.329v-1.762c-0.652-0.172-1.42-0.3-2.207-0.357l-0.042-0.002c-0.254-0.020-0.571-0.036-0.889-0.043l-0.020-0h-0.263c-1.523 0.006-3.040 0.201-4.515 0.582-1.68 0.418-3.292 1.075-4.79 1.948v17.475c1.312-0.729 2.832-1.339 4.431-1.75l0.135-0.029c1.123-0.3 2.434-0.51 3.78-0.586l0.053-0.002h0.052c0.216-0.011 0.433-0.017 0.655-0.018v-1.791c-1.78 0.024-3.493 0.264-5.129 0.695l0.147-0.033c-0.603 0.157-1.185 0.326-1.731 0.513l-0.623 0.212v-13.626l0.266-0.128c1.89-0.918 4.096-1.512 6.424-1.649l0.047-0.002c0.008-0 0.018-0.001 0.028-0.001s0.020 0 0.029 0.001l-0.001-0c0.248-0.012 0.497-0.018 0.742-0.018h0.28c0.129 0.003 0.258 0.006 0.388 0.014z"></path>
<path d="M14.838 3.651c-0.004 0-0.008 0-0.012 0-0.916 0-1.814-0.077-2.688-0.225l0.094 0.013c-0.277-0.047-0.55-0.103-0.814-0.164v17.275c1.12 0.277 2.271 0.412 3.425 0.404 1.607-0.007 3.162-0.219 4.643-0.61l-0.129 0.029c1.817-0.461 3.412-1.129 4.877-1.995l-0.085 0.047v-17.163c-1.311 0.728-2.83 1.338-4.428 1.751l-0.136 0.030c-1.551 0.399-3.145 0.603-4.746 0.609zM21.745 3.95l0.623-0.209v13.63l-0.266 0.129c-0.903 0.442-1.963 0.834-3.065 1.118l-0.119 0.026c-1.331 0.345-2.699 0.521-4.074 0.527-0.411 0-0.818-0.017-1.214-0.052l-0.426-0.038v-14.017l0.497 0.033c0.361 0.023 0.735 0.034 1.141 0.034 1.841-0.007 3.622-0.249 5.32-0.696l-0.147 0.033c0.779-0.204 1.357-0.381 1.926-0.576l-0.195 0.058zM1.684 25.977c-0.168-0.173-0.403-0.28-0.663-0.28-0.010 0-0.021 0-0.031 0l0.001-0c-0.003-0-0.007-0-0.011-0-0.14 0-0.274 0.028-0.396 0.078l0.007-0.003c-0.237 0.095-0.42 0.28-0.51 0.512l-0.002 0.006c-0.049 0.123-0.074 0.254-0.072 0.386v2.335c-0.006 0.164 0.026 0.328 0.092 0.479 0.055 0.12 0.135 0.226 0.234 0.313 0.093 0.078 0.203 0.135 0.32 0.166q0.172 0.047 0.349 0.048c0.13 0.001 0.258-0.026 0.377-0.081 0.35-0.156 0.59-0.501 0.591-0.901v-0.261h-0.61v0.208c0 0.003 0 0.007 0 0.011 0 0.071-0.013 0.139-0.038 0.201l0.001-0.004c-0.021 0.052-0.051 0.096-0.088 0.132l-0 0c-0.070 0.054-0.159 0.088-0.255 0.089h-0c-0.011 0.001-0.024 0.002-0.037 0.002-0.102 0-0.193-0.050-0.249-0.127l-0.001-0.001c-0.051-0.082-0.082-0.182-0.082-0.29 0-0.008 0-0.016 0.001-0.024l-0 0.001v-2.177c-0.004-0.121 0.022-0.24 0.075-0.349 0.057-0.087 0.153-0.143 0.263-0.143 0.012 0 0.025 0.001 0.037 0.002l-0.001-0c0.003-0 0.007-0 0.011-0 0.107 0 0.202 0.051 0.261 0.131l0.001 0.001c0.063 0.082 0.102 0.186 0.102 0.3 0 0.005-0 0.009-0 0.014l0-0.001v0.202h0.604v-0.238c0-0.003 0-0.006 0-0.009 0-0.144-0.027-0.281-0.077-0.407l0.003 0.008c-0.048-0.127-0.118-0.237-0.205-0.329l0 0zM5.31 25.951c-0.186-0.158-0.429-0.255-0.694-0.257h-0c-0.124 0-0.247 0.023-0.364 0.066-0.252 0.090-0.45 0.276-0.556 0.511l-0.002 0.006c-0.062 0.142-0.092 0.297-0.089 0.452v2.239c-0.004 0.158 0.026 0.314 0.089 0.458 0.055 0.121 0.136 0.228 0.237 0.313 0.093 0.086 0.203 0.154 0.322 0.197q0.177 0.065 0.364 0.066c0 0 0.001 0 0.001 0 0.266 0 0.51-0.1 0.694-0.264l-0.001 0.001c0.097-0.087 0.175-0.194 0.23-0.313 0.063-0.144 0.093-0.301 0.089-0.458v-2.239c0-0.005 0-0.011 0-0.017 0-0.157-0.033-0.306-0.092-0.442l0.003 0.007c-0.056-0.128-0.134-0.237-0.23-0.327l-0.001-0zM5.025 28.967c0.001 0.011 0.002 0.023 0.002 0.035 0 0.114-0.047 0.216-0.123 0.289l-0 0c-0.077 0.065-0.178 0.104-0.287 0.104s-0.21-0.039-0.288-0.104l0.001 0.001c-0.076-0.073-0.123-0.175-0.123-0.288 0-0.013 0.001-0.025 0.002-0.037l-0 0.002v-2.239c-0.001-0.011-0.002-0.023-0.002-0.035 0-0.113 0.047-0.215 0.123-0.288l0-0c0.077-0.065 0.178-0.104 0.287-0.104s0.21 0.039 0.288 0.104l-0.001-0.001c0.076 0.073 0.123 0.175 0.123 0.289 0 0.012-0.001 0.024-0.002 0.036l0-0.002zM10.073 29.969v-4.24h-0.587l-0.77 2.244h-0.011l-0.777-2.244h-0.581v4.239h0.606v-2.578h0.011l0.593 1.823h0.302l0.598-1.823h0.011v2.578zM13.513 26.027c-0.093-0.105-0.211-0.185-0.342-0.232-0.125-0.042-0.268-0.066-0.418-0.066-0.008 0-0.015 0-0.023 0h-0.899v4.24h0.604v-1.656h0.311c0.188 0.009 0.375-0.031 0.545-0.116 0.139-0.078 0.251-0.188 0.329-0.32l0.002-0.004c0.070-0.113 0.117-0.238 0.138-0.369 0.021-0.135 0.033-0.29 0.033-0.448 0-0.012-0-0.024-0-0.036l0 0.002c0.006-0.203-0.014-0.407-0.059-0.606-0.043-0.153-0.12-0.284-0.223-0.39l0 0zM13.201 27.319c-0.003 0.081-0.023 0.156-0.057 0.224l0.001-0.003c-0.035 0.065-0.089 0.116-0.154 0.147l-0.002 0.001c-0.074 0.034-0.161 0.054-0.253 0.054-0.011 0-0.022-0-0.034-0.001l0.002 0h-0.275v-1.441h0.311c0.009-0 0.019-0.001 0.029-0.001 0.088 0 0.172 0.020 0.247 0.055l-0.004-0.002c0.062 0.036 0.111 0.090 0.141 0.154l0.001 0.002c0.033 0.074 0.051 0.155 0.053 0.236v0.282c0 0.098 0.006 0.201 0 0.291zM16.374 25.729h-0.495l-0.934 4.24h0.604l0.177-0.911h0.823l0.178 0.911h0.604zM15.817 28.481l0.297-1.537h0.011l0.295 1.537zM20.277 28.283h-0.011l-0.913-2.554h-0.58v4.24h0.604v-2.55h0.012l0.923 2.549h0.569v-4.239h-0.604zM23.968 25.729l-0.486 1.686h-0.012l-0.486-1.686h-0.639l0.83 2.448v1.791h0.604v-1.791l0.83-2.447zM0 31.166h0.291v0.817h0.198v-0.817h0.289v-0.167h-0.778zM2.447 30.998l-0.382 0.985h0.21l0.081-0.224h0.392l0.084 0.224h0.215l-0.391-0.985zM2.417 31.593l0.134-0.365 0.134 0.365zM4.866 31.62h0.228v0.127c-0.063 0.052-0.145 0.083-0.233 0.083-0 0-0 0-0.001 0h0c-0.005 0-0.010 0-0.015 0-0.079 0-0.149-0.037-0.194-0.094l-0-0.001c-0.046-0.066-0.073-0.147-0.073-0.235 0-0.008 0-0.015 0.001-0.023l-0 0.001q0-0.329 0.283-0.329c0.006-0.001 0.013-0.001 0.020-0.001 0.097 0 0.179 0.066 0.202 0.156l0 0.001 0.194-0.038q-0.062-0.289-0.417-0.289c-0.004-0-0.009-0-0.014-0-0.127 0-0.243 0.048-0.33 0.127l0-0c-0.088 0.087-0.143 0.208-0.143 0.342 0 0.013 0 0.026 0.002 0.038l-0-0.002c-0 0.007-0 0.015-0 0.023 0 0.132 0.048 0.253 0.127 0.347l-0.001-0.001c0.087 0.090 0.209 0.145 0.344 0.145 0.010 0 0.021-0 0.031-0.001l-0.001 0c0.005 0 0.010 0 0.016 0 0.155 0 0.296-0.060 0.402-0.157l-0 0v-0.388h-0.426zM7.337 30.998h-0.198v0.985h0.689v-0.167h-0.49zM9.426 30.998h-0.199v0.985h0.199zM11.468 31.655l-0.403-0.657h-0.193v0.985h0.185v-0.643l0.396 0.643h0.198v-0.985h-0.182zM13.315 31.55h0.49v-0.168h-0.49v-0.215h0.527v-0.168h-0.727v0.985h0.747v-0.167h-0.548zM17.792 31.386h-0.388v-0.388h-0.198v0.984h0.198v-0.431h0.388v0.431h0.198v-0.985h-0.197zM19.649 31.55h0.492v-0.168h-0.492v-0.215h0.529v-0.168h-0.726v0.985h0.746v-0.167h-0.548zM22.169 31.55q0.257-0.040 0.258-0.274c0.001-0.009 0.002-0.018 0.002-0.028 0-0.078-0.039-0.148-0.098-0.19l-0.001-0c-0.073-0.037-0.158-0.059-0.249-0.059-0.014 0-0.027 0-0.041 0.001l0.002-0h-0.417v0.984h0.197v-0.412h0.039c0.005-0 0.010-0 0.016-0 0.039 0 0.076 0.008 0.109 0.023l-0.002-0.001q0.044 0.027 0.070 0.072l0.215 0.313h0.236l-0.119-0.192c-0.054-0.096-0.128-0.176-0.216-0.235l-0.002-0.002zM21.969 31.413h-0.146v-0.247h0.156c0.013-0.001 0.029-0.002 0.045-0.002 0.056 0 0.11 0.009 0.16 0.026l-0.003-0.001c0.027 0.024 0.043 0.058 0.043 0.097 0 0.022-0.006 0.043-0.015 0.061l0-0.001c-0.009 0.017-0.022 0.032-0.037 0.043l-0 0c-0.049 0.016-0.105 0.025-0.163 0.025-0.013 0-0.026-0-0.039-0.001l0.002 0zM24.068 31.55h0.49v-0.168h-0.49v-0.215h0.529v-0.168h-0.728v0.985h0.747v-0.167h-0.548z"></path>
</symbol>
<symbol id="icon-ya-co" viewBox="0 0 29 32">
<path d="M3.84 0l4.677 4.428h13.046v12.351l4.677 4.428v-21.206z"></path>
<path d="M0 4.241v20.6h21.76v-8.188l-13.105-12.407zM17.615 21.828h-14.172v-13.855h1.002v12.916h13.17zM6.266 28.662l0.524-1.078h0.438l-0.764 1.437v0.838h-0.397v-0.838l-0.764-1.437h0.439zM8.513 29.329h-0.881l-0.184 0.53h-0.411l0.859-2.275h0.355l0.861 2.275h-0.413zM7.743 29.010h0.659l-0.33-0.944zM10.071 29.244q0-0.158 0.086-0.289 0.086-0.133 0.339-0.314c-0.069-0.083-0.131-0.176-0.182-0.276l-0.004-0.008c-0.031-0.066-0.050-0.144-0.052-0.226v-0.001q0-0.268 0.163-0.422t0.437-0.156q0.249 0 0.406 0.147 0.16 0.145 0.16 0.361c0 0 0 0 0 0 0 0.097-0.027 0.187-0.074 0.265l0.001-0.002c-0.063 0.095-0.142 0.174-0.233 0.236l-0.003 0.002-0.155 0.113 0.44 0.518q0.095-0.187 0.095-0.417h0.33q0 0.42-0.196 0.689l0.334 0.396h-0.44l-0.128-0.152c-0.154 0.115-0.348 0.183-0.558 0.183-0.008 0-0.017-0-0.025-0l0.001 0q-0.337 0-0.54-0.179c-0.124-0.11-0.202-0.269-0.202-0.447 0-0.007 0-0.014 0-0.021l-0 0.001zM10.824 29.587q0.192 0 0.359-0.128l-0.497-0.586-0.049 0.035q-0.188 0.142-0.188 0.325 0 0.158 0.102 0.256c0.067 0.061 0.156 0.099 0.255 0.099 0.006 0 0.012-0 0.018-0l-0.001 0zM10.614 28.121q0 0.131 0.161 0.33l0.173-0.118 0.049-0.039c0.059-0.052 0.097-0.128 0.097-0.212 0-0.003-0-0.006-0-0.009v0c0-0.001 0-0.001 0-0.002 0-0.059-0.026-0.112-0.067-0.149l-0-0c-0.042-0.040-0.099-0.064-0.162-0.064-0.003 0-0.006 0-0.009 0h0c-0.003-0-0.006-0-0.009-0-0.066 0-0.126 0.029-0.167 0.075l-0 0c-0.041 0.048-0.066 0.11-0.066 0.179 0 0.003 0 0.007 0 0.010v-0zM14.748 29.118q-0.035 0.364-0.269 0.568-0.234 0.204-0.623 0.204-0.271 0-0.48-0.128c-0.139-0.089-0.248-0.214-0.317-0.362l-0.002-0.005c-0.074-0.161-0.117-0.35-0.117-0.549 0-0.001 0-0.002 0-0.003v0-0.212q0-0.321 0.114-0.567 0.115-0.246 0.326-0.378 0.214-0.133 0.494-0.133 0.376 0 0.606 0.205t0.268 0.578h-0.394q-0.028-0.245-0.144-0.353-0.114-0.109-0.336-0.109-0.257 0-0.397 0.189-0.137 0.188-0.141 0.552v0.202q0 0.369 0.132 0.563t0.387 0.194q0.232 0 0.35-0.105t0.148-0.348zM16.918 28.78q0 0.335-0.115 0.588-0.116 0.252-0.332 0.388-0.214 0.134-0.494 0.134-0.276 0-0.493-0.134c-0.146-0.094-0.261-0.225-0.332-0.38l-0.002-0.006c-0.075-0.162-0.119-0.352-0.119-0.552 0-0.009 0-0.017 0-0.026l-0 0.001v-0.128q0-0.333 0.117-0.588 0.119-0.255 0.333-0.389 0.216-0.136 0.493-0.136t0.493 0.134 0.333 0.384q0.117 0.251 0.118 0.584zM16.522 28.662q0-0.378-0.143-0.58c-0.085-0.123-0.226-0.202-0.385-0.202-0.007 0-0.014 0-0.021 0l0.001-0c-0.005-0-0.011-0-0.017-0-0.159 0-0.299 0.079-0.384 0.2l-0.001 0.002q-0.143 0.2-0.147 0.567v0.131q0 0.375 0.146 0.58 0.147 0.205 0.406 0.205 0.263 0 0.403-0.2 0.142-0.2 0.142-0.584z"></path>
</symbol>
<symbol id="icon-in" viewBox="0 0 32 32">
<path d="M31.992 32h0.008v-11.738c0-5.741-1.235-10.163-7.947-10.163-3.227 0-5.392 1.77-6.277 3.45h-0.093v-2.914h-6.365v21.363h6.627v-10.578c0-2.786 0.528-5.48 3.978-5.48 3.398 0 3.45 3.179 3.45 5.658v10.402zM0.528 10.635h6.635v21.365h-6.635zM3.843 0c-0.001 0-0.002 0-0.003 0-2.121 0-3.84 1.719-3.84 3.84 0 0.001 0 0.002 0 0.003v-0c0 2.122 1.722 3.878 3.843 3.878s3.842-1.757 3.842-3.878c-0.001-2.122-1.72-3.841-3.841-3.843h-0z"></path>
</symbol>
<symbol id="icon-facebook" viewBox="0 0 32 32">
<path d="M21.328 5.312h2.923v-5.088c-1.243-0.143-2.684-0.224-4.143-0.224-0.040 0-0.079 0-0.119 0h0.006c-4.213 0-7.099 2.65-7.099 7.52v4.48h-4.646v5.688h4.646v14.312h5.698v-14.31h4.461l0.707-5.688h-5.168v-3.922c0-1.643 0.443-2.768 2.734-2.768z"></path>
</symbol>
<symbol id="icon-instagram" viewBox="0 0 32 32">
<path d="M31.968 9.408c-0.074-1.701-0.349-2.869-0.742-3.882-0.425-1.111-1.055-2.058-1.85-2.837l-0.001-0.001c-0.779-0.793-1.724-1.421-2.778-1.827l-0.054-0.018c-1.019-0.394-2.181-0.667-3.882-0.742-1.712-0.082-2.256-0.101-6.602-0.101-4.344 0-4.888 0.019-6.595 0.094-1.699 0.074-2.869 0.349-3.88 0.742-1.112 0.425-2.059 1.055-2.839 1.85l-0.001 0.001c-0.792 0.779-1.419 1.724-1.825 2.778l-0.018 0.054c-0.395 1.019-0.669 2.181-0.744 3.882-0.082 1.712-0.101 2.256-0.101 6.602 0 4.344 0.019 4.888 0.094 6.595 0.075 1.701 0.35 2.869 0.744 3.882 0.425 1.111 1.054 2.058 1.848 2.837l0.001 0.001c0.8 0.813 1.77 1.443 2.832 1.843 1.019 0.395 2.182 0.67 3.882 0.744 1.707 0.075 2.251 0.094 6.595 0.094 4.346 0 4.89-0.019 6.595-0.094 1.701-0.074 2.869-0.349 3.882-0.742 2.157-0.851 3.832-2.526 4.664-4.628l0.019-0.055c0.394-1.019 0.669-2.182 0.744-3.882 0.075-1.707 0.093-2.251 0.093-6.595s-0.006-4.888-0.080-6.595zM29.090 22.474c-0.070 1.563-0.333 2.406-0.55 2.97-0.552 1.399-1.64 2.486-3.004 3.024l-0.036 0.013c-0.56 0.219-1.411 0.482-2.968 0.55-1.688 0.075-2.194 0.094-6.464 0.094s-4.782-0.019-6.464-0.094c-1.563-0.069-2.406-0.331-2.97-0.55-0.72-0.27-1.334-0.677-1.836-1.193l-0.001-0.001c-0.517-0.503-0.924-1.117-1.184-1.803l-0.011-0.034c-0.218-0.563-0.48-1.413-0.549-2.97-0.075-1.688-0.094-2.195-0.094-6.464s0.019-4.784 0.094-6.464c0.069-1.563 0.331-2.406 0.549-2.97 0.268-0.722 0.677-1.337 1.197-1.837l0.002-0.002c0.504-0.517 1.119-0.924 1.806-1.182l0.034-0.011c0.56-0.219 1.411-0.48 2.968-0.55 1.688-0.074 2.195-0.093 6.464-0.093 4.275 0 4.782 0.019 6.464 0.093 1.563 0.069 2.406 0.331 2.97 0.55 0.693 0.256 1.325 0.662 1.837 1.194 0.531 0.52 0.938 1.144 1.195 1.84 0.218 0.56 0.48 1.411 0.549 2.968 0.075 1.688 0.094 2.194 0.094 6.464s-0.019 4.768-0.094 6.458z"></path>
<path d="M16.059 7.782c-4.539 0.003-8.217 3.682-8.219 8.221v0c0.091 4.471 3.737 8.060 8.221 8.060s8.13-3.589 8.221-8.052l0-0.009c-0.002-4.54-3.681-8.219-8.221-8.221h-0zM16.061 21.334c-2.945-0-5.332-2.388-5.332-5.333s2.388-5.333 5.333-5.333c0 0 0.001 0 0.001 0h-0c2.946 0 5.334 2.388 5.334 5.334s-2.388 5.334-5.334 5.334v0zM26.525 7.458c0 1.060-0.86 1.92-1.92 1.92s-1.92-0.86-1.92-1.92v0c0-1.060 0.86-1.92 1.92-1.92s1.92 0.86 1.92 1.92v0z"></path>
</symbol>
<symbol id="icon-twitter" viewBox="0 0 32 32">
<path d="M32 6.078c-1.1 0.492-2.376 0.856-3.712 1.028l-0.069 0.007c1.36-0.817 2.381-2.078 2.873-3.579l0.013-0.046c-1.198 0.722-2.591 1.273-4.076 1.573l-0.084 0.014c-1.2-1.279-2.9-2.076-4.787-2.076-3.622 0-6.558 2.936-6.558 6.558 0 0.002 0 0.004 0 0.005v-0c0 0.52 0.043 1.021 0.152 1.496-5.454-0.266-10.28-2.88-13.522-6.861-0.564 0.949-0.899 2.092-0.902 3.313v0.001c0 2.272 1.171 4.286 2.915 5.451-1.092-0.030-2.108-0.326-2.996-0.825l0.033 0.017v0.072c0.004 3.165 2.237 5.807 5.213 6.44l0.043 0.008c-0.493 0.136-1.060 0.215-1.644 0.215-0.027 0-0.053-0-0.080-0l0.004 0c-0.419 0-0.843-0.024-1.242-0.112 0.85 2.598 3.262 4.509 6.13 4.57-2.215 1.746-5.046 2.8-8.123 2.8-0.004 0-0.008 0-0.012 0h0.001c-0.009 0-0.020 0-0.031 0-0.542 0-1.077-0.034-1.601-0.099l0.063 0.006c2.826 1.846 6.286 2.944 10.003 2.944 0.022 0 0.043-0 0.065-0h-0.003c12.072 0 18.672-10 18.672-18.667q0-0.435-0.024-0.848c1.298-0.938 2.39-2.067 3.258-3.359l0.030-0.047z"></path>
</symbol>
</defs>
</svg>
